# xmcd
# 
# Track frame offsets:
#     150
#     25375
#     52375
#     71977
#     93670
#     124640
#     141680
#     159745
#     184252
#     196207
#     232609
# 
# Disc length: 3394
# 
# Revision: 2
# Processed by: cddbd v1.5.2PL0 Copyright (c) Steve Scherf et al.
# Submitted via: BonkEnc v1.0.8
# 
DISCID=a80d400b
DTITLE=Willie King and The Liberators - Living In A New World
DYEAR=2002
DGENRE=Blues
TTITLE0=Living In A New World
TTITLE1=Crawlin' Blues
TTITLE2=The Stomper
TTITLE3=America
TTITLE4=You So Evil
TTITLE5=All Tied Up
TTITLE6=You Got To Have Love
TTITLE7=Ain't Gonna Work
TTITLE8=Is It My Imagination
TTITLE9=Terrorized
TTITLE10=The Blues Life (monologue)
EXTD=YEAR: 2002 ID3G: 0
EXTT0=
EXTT1=
EXTT2=
EXTT3=
EXTT4=
EXTT5=
EXTT6=
EXTT7=
EXTT8=
EXTT9=
EXTT10=
PLAYORDER=
